<?xml version="1.0" encoding="utf-8"?>
<!-- Generator: Adobe Illustrator 17.1.0, SVG Export Plug-In . SVG Version: 6.00 Build 0)  -->
<!DOCTYPE svg PUBLIC "-//W3C//DTD SVG 1.1//EN" "http://www.w3.org/Graphics/SVG/1.1/DTD/svg11.dtd">
<svg version="1.1" id="Layer_1" xmlns="http://www.w3.org/2000/svg" xmlns:xlink="http://www.w3.org/1999/xlink" x="0px" y="0px"
	 viewBox="0 755.5 36.5 36.5" enable-background="new 0 755.5 36.5 36.5" xml:space="preserve">
<g>
	<g>
		<g>
			<g>
				<path fill="#FFFFFF" d="M22.5,781.9c0,0,0-2.1,0-4.1c0-2,0-4.1,0-4.1c0-1.2-0.5-2.3-1.2-3.1s-1.7-1.3-2.9-1.3
					c-1.2,0-2.3,0.5-3.1,1.3c-0.8,0.8-1.3,1.9-1.3,3.1s0.5,2.3,1.3,3.1c0.8,0.8,1.9,1.3,3.1,1.3c0.6,0,1.1-0.1,1.6-0.3
					c0.5-0.2,1-0.5,1.4-0.8c0,0.8,0,1.6,0,2.4s0,1.6,0,2.4c-0.5,0.2-0.9,0.3-1.4,0.4c-0.5,0.1-1,0.1-1.5,0.1c-2.4,0-4.5-1-6.1-2.5
					s-2.5-3.7-2.5-6.1s1-4.5,2.5-6.1c1.6-1.6,3.7-2.5,6.1-2.5c2.4,0,4.5,1,6,2.6c1.5,1.6,2.5,3.8,2.5,6.1c0,0,0,2,0,4.1
					c0,2,0,4.1,0,4.1"/>
			</g>
		</g>
	</g>
	<g>
		<path fill="#FFFFFF" d="M18.3,790.9c-4.6,0-8.9-1.8-12.2-5c-3.3-3.3-5-7.6-5-12.2c0-4.6,1.8-8.9,5-12.2c3.3-3.3,7.6-5,12.2-5
			s8.9,1.8,12.2,5c3.3,3.3,5,7.6,5,12.2c0,4.6-1.8,8.9-5,12.2C27.2,789.1,22.9,790.9,18.3,790.9z M18.3,760.5
			c-7.3,0-13.2,5.9-13.2,13.2c0,7.3,5.9,13.2,13.2,13.2s13.2-5.9,13.2-13.2C31.5,766.4,25.6,760.5,18.3,760.5z"/>
	</g>
</g>
</svg>
